HIERARCHY
ROOT Hips
{
 OFFSET 0.000000 0.000000 0.000000
 CHANNELS 6 Xposition Yposition Zposition Yrotation Xrotation Zrotation
 JOINT Chest
 {
  OFFSET 0.000000 9.585900 0.002600
  CHANNELS 3 Yrotation Xrotation Zrotation
  JOINT Chest2
  {
   OFFSET 0.000000 9.601200 -0.005300
   CHANNELS 3 Yrotation Xrotation Zrotation
   JOINT Chest3
   {
    OFFSET 0.000000 9.561800 0.000000
    CHANNELS 3 Yrotation Xrotation Zrotation
    JOINT Chest4
    {
     OFFSET 0.000000 9.552100 0.000000
     CHANNELS 3 Yrotation Xrotation Zrotation
     JOINT Neck
     {
      OFFSET 0.000000 14.453000 0.000000
      CHANNELS 3 Yrotation Xrotation Zrotation
      JOINT Head
      {
       OFFSET 0.000000 8.936500 -0.011300
       CHANNELS 3 Yrotation Xrotation Zrotation
       End Site
       {
        OFFSET 0.000000 17.073600 -0.006000
       }
      }
     }
     JOINT RightCollar
     {
      OFFSET -2.921100 9.558500 0.000000
      CHANNELS 3 Yrotation Xrotation Zrotation
      JOINT RightShoulder
      {
       OFFSET -13.519700 0.000000 0.000000
       CHANNELS 3 Yrotation Xrotation Zrotation
       JOINT RightElbow
       {
        OFFSET 0.000000 -29.696600 0.000000
        CHANNELS 3 Yrotation Xrotation Zrotation
        JOINT RightWrist
        {
         OFFSET 0.000000 -24.004700 0.000000
         CHANNELS 3 Yrotation Xrotation Zrotation
         End Site
         {
          OFFSET 0.000000 -17.728500 0.000000
         }
        }
       }
      }
     }
     JOINT LeftCollar
     {
      OFFSET 2.921100 9.558500 0.000000
      CHANNELS 3 Yrotation Xrotation Zrotation
      JOINT LeftShoulder
      {
       OFFSET 13.519700 0.000000 0.000000
       CHANNELS 3 Yrotation Xrotation Zrotation
       JOINT LeftElbow
       {
        OFFSET 0.000000 -29.696600 0.000000
        CHANNELS 3 Yrotation Xrotation Zrotation
        JOINT LeftWrist
        {
         OFFSET 0.000000 -24.004700 0.000000
         CHANNELS 3 Yrotation Xrotation Zrotation
         End Site
         {
          OFFSET 0.000000 -17.728500 0.000000
         }
        }
       }
      }
     }
    }
   }
  }
 }
 JOINT RightHip
 {
  OFFSET -7.771700 -0.012900 -0.001300
  CHANNELS 3 Yrotation Xrotation Zrotation
  JOINT RightKnee
  {
   OFFSET 0.000000 -40.869800 0.001200
   CHANNELS 3 Yrotation Xrotation Zrotation
   JOINT RightAnkle
   {
    OFFSET 0.000000 -39.717900 0.002100
    CHANNELS 3 Yrotation Xrotation Zrotation
    JOINT RightToe
    {
     OFFSET 0.000000 -4.965400 11.033500
     CHANNELS 3 Yrotation Xrotation Zrotation
     End Site
     {
      OFFSET 0.000000 -1.423100 5.872300
     }
    }
   }
  }
 }
 JOINT LeftHip
 {
  OFFSET 7.771700 -0.012900 -0.001300
  CHANNELS 3 Yrotation Xrotation Zrotation
  JOINT LeftKnee
  {
   OFFSET 0.000000 -40.869800 0.001200
   CHANNELS 3 Yrotation Xrotation Zrotation
   JOINT LeftAnkle
   {
    OFFSET 0.000000 -39.717900 0.002100
    CHANNELS 3 Yrotation Xrotation Zrotation
    JOINT LeftToe
    {
     OFFSET 0.000000 -4.965400 11.033500
     CHANNELS 3 Yrotation Xrotation Zrotation
     End Site
     {
      OFFSET 0.000000 -1.423100 5.872300
     }
    }
   }
  }
 }
}
MOTION
Frames: 6
Frame Time: 0.008333
-224.060336 57.007383 137.814373 175.040205 -41.097590 -1.017465 0.487610 21.729918 2.237459 -0.054350 2.897408 0.334978 -0.079940 4.718200 0.544540 -0.056924 18.286418 2.130898 0.818901 16.220676 -1.242052 1.960690 -5.642769 -2.597122 1.666373 -1.375799 -0.642860 2.469208 -15.747939 -10.336698 135.668845 -50.090909 -126.556258 13.357326 -20.770129 -53.007529 -5.681689 -3.027228 -2.482150 5.360679 -9.386486 -0.733832 -7.567414 -84.719363 -27.020128 -6.059665 -8.019458 21.128856 8.885728 -35.699920 -6.115570 -8.388102 64.778647 -6.112306 5.322306 30.530849 2.234993 -0.720176 -17.159401 5.020322 -5.622259 -32.673151 4.233563 27.322216 69.170192 28.983620 -14.741951 5.194997 -4.982648 0.218886 0.899571 0.231555
-224.086509 57.003995 137.800951 175.106747 -41.003739 -0.971908 0.481570 21.720312 2.199500 -0.052421 2.894242 0.335876 -0.076667 4.713323 0.546141 -0.093431 18.243403 2.124755 0.858631 16.216269 -1.259254 1.955888 -5.717708 -2.627928 1.745331 -1.380153 -0.632023 2.655133 -15.782813 -10.417637 135.804047 -50.222248 -126.531078 13.354192 -20.768716 -52.965964 -5.697200 -3.037966 -2.482480 5.367028 -9.407372 -0.764755 -7.451322 -84.745119 -27.104642 -6.057764 -8.021917 21.115896 8.881270 -35.804681 -6.233864 -8.434781 64.828440 -6.200257 5.318201 30.531760 2.204687 -0.710342 -17.146918 5.061453 -5.621759 -32.776594 4.158038 27.370586 69.185238 28.957016 -14.706295 5.185788 -4.899505 0.164248 0.885023 0.196547
-224.106088 56.998129 137.791142 175.174488 -40.886123 -0.975894 0.492790 21.686072 2.213815 -0.050540 2.890643 0.336643 -0.073556 4.707788 0.547527 -0.054728 18.251102 2.141068 0.828488 16.157569 -1.276253 1.951311 -5.792357 -2.658118 1.755913 -1.432465 -0.626182 2.828599 -15.813838 -10.498201 135.944443 -50.341561 -126.504020 13.361312 -20.764841 -52.932737 -5.752776 -3.077902 -2.474273 5.319144 -9.451874 -0.781081 -7.090089 -84.767099 -27.407969 -6.057675 -8.023085 21.102497 8.834912 -35.942747 -6.292936 -8.421160 64.877013 -6.240105 5.332909 30.535404 2.207308 -0.721194 -17.136148 5.087141 -5.643916 -32.903240 4.161087 27.311893 69.215337 28.859850 -14.757246 5.162482 -4.900170 0.193183 0.847534 0.183933
-224.126154 56.994544 137.778836 175.229800 -40.787157 -0.973982 0.473271 21.628970 2.201137 -0.012279 2.929239 0.352641 -0.070138 4.702270 0.548886 -0.016269 18.258291 2.156924 0.799497 16.099055 -1.293233 1.946143 -5.867773 -2.688267 1.766367 -1.482300 -0.623477 2.987048 -15.838290 -10.582047 136.097849 -50.448897 -126.482057 13.372897 -20.764999 -52.910884 -5.799780 -3.113898 -2.465155 5.305740 -9.492733 -0.826371 -6.933383 -84.787853 -27.549256 -6.058651 -8.022599 21.095958 8.823570 -36.045379 -6.361955 -8.412895 64.907872 -6.262294 5.342220 30.522673 2.219510 -0.711190 -17.108134 5.098356 -5.628046 -33.005304 4.177322 27.218646 69.254177 28.699488 -14.794039 5.120308 -4.844509 0.197082 0.856815 0.188779
-224.151793 56.991139 137.766060 175.275785 -40.686498 -0.937331 0.511016 21.631098 2.204072 -0.027348 2.905454 0.346309 -0.066265 4.697780 0.550597 -0.000039 18.250235 2.166674 0.790838 16.056192 -1.310655 1.937379 -5.947160 -2.718692 1.791807 -1.519204 -0.622471 3.128387 -15.853739 -10.669866 136.270344 -50.542805 -126.468732 13.384226 -20.771209 -52.897274 -5.765201 -3.093278 -2.464159 5.273113 -9.562936 -0.895775 -6.934379 -84.812446 -27.581795 -6.058756 -8.020238 21.093883 8.841121 -36.145177 -6.473149 -8.386585 64.937200 -6.259153 5.330575 30.518048 2.212091 -0.691873 -17.086580 5.116056 -5.620490 -33.110573 4.123969 27.281613 69.264811 28.688159 -14.759092 5.099567 -4.756897 0.127500 0.851730 0.155714
-224.175929 56.989006 137.752360 175.335469 -40.591897 -0.920984 0.547246 21.640244 2.221150 -0.043476 2.881851 0.339572 -0.062109 4.694284 0.552424 0.017541 18.243803 2.176900 0.735055 15.994359 -1.319182 1.971977 -6.015125 -2.768889 1.813952 -1.561374 -0.620838 3.250335 -15.861512 -10.761327 136.461830 -50.625972 -126.463001 13.391998 -20.782114 -52.886661 -5.772066 -3.099122 -2.459633 5.231007 -9.617085 -0.928904 -6.503668 -84.834445 -27.996772 -6.059505 -8.018899 21.087881 8.837534 -36.243664 -6.557259 -8.362402 64.977520 -6.279413 5.342353 30.500213 2.226277 -0.680682 -17.040405 5.136498 -5.599815 -33.210214 4.085113 27.261370 69.281960 28.626533 -14.782220 5.081928 -4.703309 0.124233 0.853787 0.153261
